<svg version="1.1" id="Layer_1" xmlns="http://www.w3.org/2000/svg" xmlns:xlink="http://www.w3.org/1999/xlink" x="0px" y="0px"
	 width="100%" viewBox="358.81 35.33 384.88 311.16" enable-background="new 0 0 1024 544" xml:space="preserve">
<!-- ============================================================= -->
<!-- Logo container: rectangular shape bounding the full SVG      -->
<!-- Background color: #000000                                     -->
<!-- Tight fit: 5px padding around the logo shape                 -->
<!-- ============================================================= -->
<rect id="container" x="358.81" y="35.33" width="384.88" height="311.16" fill="#000000"/>
<!-- ===================== (end of container) ==================== -->
<path fill="#feebc1" opacity="1.000000" stroke="none" 
	d="
M526.914368,220.153000 
	C528.071106,220.202332 529.229065,220.232208 530.384399,220.304413 
	C535.067810,220.597000 537.811646,217.622177 536.311096,213.124664 
	C535.356018,210.261963 536.068604,208.611710 537.792847,206.461487 
	C543.209778,199.706421 548.394592,192.775085 554.458679,186.552902 
	C556.800720,184.149750 559.059082,183.488937 562.666443,186.521042 
	C561.171265,183.011230 562.782410,181.885269 564.847412,180.883530 
	C569.882751,178.440857 575.630554,176.084213 580.650085,177.483246 
	C585.758667,178.907074 590.493225,176.354980 595.344971,178.216110 
	C600.168152,180.066284 604.995300,181.726944 609.393555,184.561890 
	C612.433594,186.521362 614.648621,184.609756 615.507568,181.799484 
	C616.601990,178.218506 617.056091,174.441818 617.998535,169.675797 
	C614.992737,173.049957 615.724365,176.905350 613.032532,179.875275 
	C608.018188,176.277039 602.550720,173.408295 596.701294,171.556778 
	C597.132690,167.248993 602.294678,167.751999 602.655701,163.944611 
	C600.971558,164.165131 599.345642,165.478943 597.536804,164.079514 
	C597.385315,169.275833 593.868286,170.432602 590.247742,170.756210 
	C586.629150,171.079651 582.907837,170.866486 579.287781,170.426300 
	C572.839417,169.642212 569.091370,165.309265 569.408936,158.776993 
	C569.665527,153.500031 574.026611,154.397919 577.263550,154.224503 
	C575.676819,148.250702 571.332703,142.990402 575.666382,135.990402 
	C579.000000,130.605820 579.285706,123.921524 578.705627,117.533348 
	C578.306885,113.142151 579.226807,109.512871 582.233032,106.072479 
	C585.949097,101.819756 589.199341,97.136528 591.730103,92.030571 
	C592.430237,90.617928 593.488770,89.665413 594.849915,88.925354 
	C607.958130,81.798508 621.241089,80.501030 634.093628,89.023643 
	C641.582825,93.989761 649.297424,97.595222 658.193054,99.192497 
	C666.741455,100.727409 673.642700,105.938538 680.969421,111.730232 
	C679.461548,105.622887 675.481201,102.449287 671.416992,99.464668 
	C666.378845,95.764755 660.612366,93.540665 654.530151,92.279449 
	C649.517029,91.239944 645.058105,89.042618 641.029846,86.072243 
	C629.644958,77.677231 617.093872,75.812729 603.557861,78.908447 
	C602.420715,79.168518 601.301941,79.578941 600.240662,78.724838 
	C600.929443,68.275192 607.294983,63.388374 617.952942,65.992531 
	C631.998779,69.424484 646.047302,72.994713 659.806702,77.403969 
	C671.321655,81.093971 679.257202,89.499886 683.836121,100.615746 
	C685.492676,104.637360 687.872986,107.165390 691.546631,109.204170 
	C700.596375,114.226479 706.828064,121.626472 709.997070,132.221237 
	C705.723999,131.630264 704.265747,126.631889 698.622681,127.832779 
	C708.272400,139.255585 712.139099,152.202271 712.063416,166.555832 
	C716.017212,162.368134 714.685913,156.936844 716.478455,151.258331 
	C721.080566,156.078110 723.569458,161.268433 724.247009,167.162613 
	C725.169678,175.189178 724.271423,183.083939 721.312256,190.708649 
	C719.924194,194.285477 718.958618,198.032425 719.854187,201.926895 
	C720.507690,204.769089 718.400330,206.643997 717.399292,208.788025 
	C713.918945,216.242645 700.750305,220.044769 695.198730,215.210144 
	C695.001953,215.006271 695.022034,215.031433 694.938660,214.655396 
	C692.486511,209.306778 693.534790,205.629761 697.733459,201.664841 
	C703.326965,196.382767 706.238708,189.385208 705.659180,181.380005 
	C704.359741,163.429550 697.712402,147.092697 689.463867,131.493805 
	C685.348877,123.711914 677.800049,119.797089 668.554932,120.364265 
	C665.132507,120.574219 661.713257,120.835220 658.298340,121.072540 
	C656.618042,106.464973 644.086731,103.138374 634.404846,96.914268 
	C635.638062,100.214447 638.135742,102.398384 640.776184,104.363846 
	C648.056030,109.782616 655.033264,115.293686 651.481201,126.342377 
	C655.055969,125.871895 657.829041,125.492584 660.606018,125.144028 
	C670.029236,123.961258 678.358093,126.236115 684.061218,134.142090 
	C694.133301,148.104767 699.304199,164.121384 700.749329,181.055099 
	C701.418762,188.899643 697.859863,196.091843 690.875732,201.300232 
	C688.532104,198.043137 686.862244,195.350754 689.102783,191.816132 
	C689.924072,190.520554 690.100769,188.699707 689.243958,187.486053 
	C685.222473,181.790054 687.473328,177.696228 692.215149,173.951859 
	C694.052002,172.501343 694.175842,170.430298 692.758789,168.616425 
	C691.487732,166.989471 689.577271,166.690353 687.800842,167.700653 
	C685.670715,168.912094 685.911194,171.031540 686.318909,173.044464 
	C687.271240,177.744629 686.116394,181.638657 681.901550,184.227829 
	C679.671143,185.597946 678.555176,187.594009 678.607056,190.019745 
	C678.694153,194.094086 676.428955,195.761642 672.859924,196.094910 
	C670.353027,196.329010 668.749023,197.355087 668.361816,199.887573 
	C668.112061,201.520828 667.093872,202.475708 665.878601,203.444672 
	C658.459656,209.360016 651.076111,215.320038 643.709595,221.300644 
	C642.416138,222.350754 641.258972,223.568756 640.038818,224.709229 
	C648.815369,218.992874 656.920654,212.624176 665.041321,206.275330 
	C665.947144,205.567169 667.099670,204.264297 667.868469,204.436951 
	C673.472473,205.695465 674.861145,202.231491 676.063354,197.934616 
	C676.589050,196.055740 678.171326,194.253937 680.482300,194.506683 
	C683.919128,194.882538 686.841309,196.253113 688.025024,199.958008 
	C688.777405,202.313248 688.460327,204.354889 686.232422,205.587952 
	C682.176636,207.832672 680.647278,211.911530 678.222717,215.478729 
	C671.851868,224.852005 668.105347,236.580063 654.001526,238.846695 
	C648.303589,239.762390 644.474487,237.278503 639.849792,236.238953 
	C634.546082,235.046753 636.944702,227.554901 631.956604,225.796661 
	C631.842712,225.756500 631.954224,224.843262 632.086975,224.372971 
	C633.389771,219.759308 634.449585,215.323975 639.613281,212.852371 
	C657.852295,204.122269 669.811523,190.249191 673.300171,169.854263 
	C674.030945,165.581909 674.653564,161.403320 679.023743,158.841110 
	C680.930237,157.723312 680.893799,155.391510 679.388794,153.547699 
	C678.191284,152.080521 676.551636,151.644058 674.925537,152.628204 
	C673.112061,153.725739 671.778198,155.350006 672.944580,157.604752 
	C673.742310,159.146759 674.502808,160.432907 673.382019,162.183090 
	C670.660278,166.433197 669.483887,171.358749 667.594299,175.973160 
	C664.917725,182.509445 661.530212,188.621246 656.487183,193.607941 
	C653.336182,196.723724 649.206726,198.486115 644.896057,197.202286 
	C642.302795,196.429916 640.215027,193.960449 637.900085,192.253662 
	C639.317261,195.257324 637.792725,197.877335 637.132874,200.225098 
	C641.767273,206.898407 645.011414,198.307129 650.190857,199.375259 
	C636.231201,211.096527 620.296204,215.670761 603.803772,218.810226 
	C604.463623,221.851166 606.102234,223.329483 608.223389,222.221222 
	C613.378967,219.527435 619.186584,220.918488 624.462769,219.116302 
	C626.378357,218.461990 628.323059,216.991837 630.684875,217.967651 
	C632.528503,225.860352 624.369812,228.560791 622.260620,234.178619 
	C625.033813,238.222504 628.164001,241.200134 633.525879,239.385757 
	C634.191162,239.160629 635.285400,239.438843 635.879944,239.884888 
	C643.413452,245.536667 650.891785,251.261993 659.080322,257.498779 
	C655.473938,258.761719 652.888123,258.598175 650.326416,257.945496 
	C646.780701,257.042114 643.270447,256.000519 639.739380,255.038727 
	C634.250549,253.543701 628.664551,250.629364 623.290649,250.974731 
	C617.627258,251.338669 611.910645,249.552032 606.328186,251.414505 
	C604.100891,252.157639 601.472656,249.322922 600.356567,250.261856 
	C595.116821,254.669647 589.415161,251.860764 583.971130,251.887451 
	C582.248962,251.895889 580.704590,251.746185 579.301453,252.731827 
	C566.848267,261.479797 552.946106,261.922577 538.617859,259.823578 
	C536.601135,259.528198 534.631653,259.026489 532.958862,260.628632 
	C528.263123,265.126160 522.645874,268.328827 517.199524,271.828766 
	C522.857971,271.057800 528.204163,269.589233 532.680420,265.919708 
	C535.021912,264.000153 537.301025,263.556427 540.471130,264.311310 
	C552.582153,267.195435 564.431274,265.715729 575.330322,259.785858 
	C579.667542,257.426025 583.684631,256.167206 588.468750,257.045837 
	C592.105103,257.713654 595.767273,257.284393 599.420227,257.045715 
	C607.835266,256.495819 611.814026,259.160126 614.544250,267.098328 
	C615.502380,269.883942 617.493286,271.316345 620.324463,270.346893 
	C623.018372,269.424500 624.050720,267.390228 623.109802,264.379059 
	C620.886169,257.262878 622.181519,255.920792 629.322205,257.479645 
	C639.043945,259.601990 648.396729,263.453827 658.527344,263.668976 
	C663.745300,263.779785 664.964233,265.544647 663.066345,270.499786 
	C662.045837,273.164154 661.982727,275.435211 664.674622,276.985992 
	C666.979431,278.313782 668.923096,277.273224 670.356445,275.434479 
	C672.432373,272.771301 670.878296,270.917084 668.782043,269.114502 
	C664.536987,265.464142 664.839722,264.154236 669.981140,262.320923 
	C676.070190,260.149658 681.990479,257.655182 687.154846,251.603119 
	C680.654846,253.544571 675.724854,256.326019 670.253479,257.646393 
	C666.197998,258.625122 662.846985,258.290405 659.528687,255.641312 
	C653.804565,251.071564 647.837280,246.806747 642.103882,242.248108 
	C640.580872,241.037140 638.068848,240.595001 637.528015,236.455856 
	C642.730774,240.011749 648.881897,238.776337 652.029419,244.672775 
	C653.476318,247.383362 656.514771,247.730728 658.787231,245.239441 
	C660.313660,243.565994 661.960266,242.970047 664.031250,243.005768 
	C664.016479,242.996552 663.990295,242.973282 663.990295,242.973282 
	C668.975037,244.949142 674.878418,244.102005 679.126526,248.642487 
	C680.870605,250.506561 685.556519,247.694397 684.999023,244.902802 
	C684.015442,239.977692 687.292969,237.616348 689.758484,234.674118 
	C691.642151,232.426163 693.756836,230.371811 696.250427,227.718842 
	C699.025146,231.744431 699.213440,235.901993 699.956421,239.801651 
	C701.354675,247.140961 702.499756,254.528305 703.771423,261.891998 
	C704.308044,264.999451 705.188110,268.072083 703.218811,271.074860 
	C701.916870,273.059967 703.080322,274.558411 704.650146,275.749969 
	C706.118469,276.864502 707.771118,277.039337 709.289551,275.942627 
	C710.834290,274.827057 712.256042,273.279236 711.100952,271.308472 
	C708.611816,267.061462 710.613159,263.128662 711.892395,259.327850 
	C714.768921,250.781662 717.204102,242.184082 717.654419,233.127319 
	C717.732056,231.566360 718.012695,230.343094 719.654053,229.483673 
	C723.601074,227.416977 727.417847,225.101685 731.284790,222.888046 
	C738.162781,233.062759 738.687134,261.832947 729.371155,269.146301 
	C726.966553,266.897125 725.456970,264.601959 727.150574,261.061981 
	C728.445190,258.356079 726.570740,256.621124 724.536804,255.325287 
	C722.778320,254.204941 721.303589,255.248154 720.208191,256.609680 
	C718.658630,258.535706 718.284180,261.183838 720.341980,262.396454 
	C726.321350,265.919952 724.604919,271.228485 723.808167,276.067932 
	C722.888489,281.653717 719.461792,285.612915 714.037842,287.773193 
	C708.549316,289.959167 702.942749,290.019989 697.364868,288.676544 
	C681.380798,284.826782 665.516602,280.450623 649.466736,276.909576 
	C631.558044,272.958374 613.276489,271.161987 594.984192,271.653351 
	C580.896484,272.031677 566.950012,274.596527 553.145386,277.861298 
	C539.098022,281.183472 525.345703,285.711243 510.980743,287.798645 
	C502.460876,289.036621 494.406128,288.098114 486.576508,284.876434 
	C477.925049,281.316620 469.720245,276.877289 462.381012,271.030212 
	C445.132965,257.288818 446.963959,224.850494 465.805542,212.655060 
	C467.926971,214.868774 469.078918,216.998459 466.618042,219.895096 
	C464.980530,221.822571 464.806854,224.210358 466.189362,226.421402 
	C467.513214,228.538620 469.506348,228.750885 471.883118,228.347794 
	C476.614594,227.545364 487.561279,233.705139 489.496185,238.094467 
	C490.446167,240.249557 492.278656,242.609161 494.266815,241.333893 
	C499.104797,238.230606 502.782013,241.360901 506.880798,242.585663 
	C509.432983,243.348282 511.821960,244.400757 514.035156,246.023209 
	C511.101837,248.480911 501.062195,249.183914 496.685272,247.143036 
	C494.164856,245.967804 492.142548,246.185104 490.512054,248.365997 
	C489.138977,250.202637 490.489716,251.439682 491.795898,252.562546 
	C493.168732,253.742630 494.550323,253.558426 495.843811,252.437698 
	C501.184784,247.810165 507.613068,250.217316 513.542297,249.954102 
	C516.431030,249.825882 517.221741,253.373764 514.967407,256.016418 
	C511.637115,259.920380 508.079468,263.630402 504.618622,267.422974 
	C505.013611,267.819550 505.408600,268.216125 505.803589,268.612701 
	C508.931946,265.167664 512.122925,261.776733 515.164612,258.256805 
	C516.922852,256.222107 518.768982,255.062759 521.637634,255.579651 
	C524.790161,256.147675 527.286011,254.671555 528.557434,251.822113 
	C529.708679,249.241959 531.700684,248.934540 534.105225,248.440338 
	C542.115356,246.794113 550.402161,247.499863 559.051392,245.222595 
	C562.111694,244.693787 563.227356,246.440475 564.682373,247.774399 
	C566.173279,249.141266 568.320374,249.496780 569.514465,247.794754 
	C570.811340,245.946182 572.543457,243.964783 572.197510,241.431061 
	C572.050842,240.357132 571.049500,240.506744 569.883606,240.666748 
	C565.852600,241.219910 562.648865,243.632004 558.998291,244.996506 
	C550.653320,244.482956 542.437256,245.869293 534.171326,246.586700 
	C532.184448,246.759125 529.572083,247.666428 528.256348,245.296585 
	C526.862915,242.786636 528.913147,240.918777 530.236450,239.099075 
	C533.380859,234.775314 536.689941,231.118500 542.883179,230.895599 
	C548.179871,230.704971 553.307922,228.534500 557.775146,225.627380 
	C561.814575,222.998627 566.555603,222.257858 571.509399,220.217667 
	C567.852539,217.322693 564.993225,216.828217 561.463562,218.894165 
	C557.171692,221.406326 552.573303,223.346603 547.736206,224.694809 
	C545.106995,225.427597 542.618469,226.194336 540.605713,223.505188 
	C535.241272,228.597397 529.383789,227.030472 523.420776,225.088852 
	C524.503723,223.089142 525.709045,221.621078 526.914368,220.153000 
M629.415894,148.133575 
	C629.775757,146.695618 629.394409,145.281342 628.300598,144.502350 
	C625.199463,142.293762 624.817993,138.997803 624.564514,135.707382 
	C624.371094,133.196442 622.337402,129.938019 624.944946,128.313522 
	C627.457947,126.747925 630.315247,129.086365 632.833374,130.248398 
	C634.162476,130.861725 635.345154,131.890732 636.438416,132.900391 
	C642.993042,138.953705 646.043091,146.753326 647.328125,155.354752 
	C647.621033,157.315308 647.845215,159.184219 649.301025,160.897568 
	C655.208130,146.880432 643.918518,126.321541 628.148315,123.072922 
	C622.830688,121.977524 621.995483,119.472084 621.734375,115.107803 
	C621.596680,112.805710 622.684937,111.360535 623.740662,109.698540 
	C624.934143,107.819336 624.242798,106.163071 622.916199,104.717628 
	C621.671997,103.361954 619.996399,103.030991 618.318848,103.565094 
	C616.349670,104.192032 615.531250,105.818680 615.430603,107.807579 
	C615.333740,109.721184 616.641663,110.693283 617.938110,111.832062 
	C620.966125,114.491806 621.613708,121.548874 618.901306,122.151833 
	C611.484314,123.800598 605.331421,127.378380 599.875916,132.544266 
	C598.977722,133.394791 597.004211,133.017914 595.598938,133.443634 
	C592.599365,134.352295 591.599731,136.323105 593.116028,139.178116 
	C593.802612,140.470703 594.799988,141.598190 595.758301,142.943680 
	C597.885742,141.581100 599.753296,139.838821 603.061218,139.707779 
	C600.169739,137.059036 601.234192,135.452103 603.530762,133.819321 
	C607.382202,131.081070 611.472229,128.936386 616.093262,127.905739 
	C621.204529,126.765747 622.191589,127.579155 622.414246,132.934006 
	C622.905823,144.754593 622.905884,144.754593 611.239868,142.873245 
	C626.425415,146.004059 620.683167,156.162369 619.177490,165.244003 
	C620.900085,158.537643 625.456665,153.915100 629.415894,148.133575 
M613.622986,206.821167 
	C614.950073,202.685547 611.433228,201.533035 609.071960,200.094070 
	C606.293640,198.400925 603.324341,199.530121 601.602600,201.951584 
	C598.797241,205.897049 599.728821,209.914856 602.463989,213.597473 
	C606.889709,212.659821 611.674988,212.687469 613.622986,206.821167 
M587.556885,232.249847 
	C583.779175,231.197281 581.884399,233.052628 581.229004,236.518005 
	C580.770020,238.945038 581.016235,241.860352 583.756592,242.176834 
	C586.834290,242.532303 590.028381,240.603653 591.500854,238.044144 
	C592.912537,235.590515 590.985901,233.374985 587.556885,232.249847 
M578.314697,180.289627 
	C574.943054,180.672928 573.999146,182.828659 574.180908,185.868912 
	C574.302002,187.895599 575.341797,188.820572 577.340088,188.837265 
	C579.881531,188.858490 581.335571,187.427170 582.046509,185.201630 
	C582.908752,182.502228 581.172791,181.284653 578.314697,180.289627 
M631.869080,178.343674 
	C631.954346,175.951416 631.312805,173.934921 628.560120,173.760284 
	C626.950378,173.658142 625.506775,174.750977 625.394409,176.355774 
	C625.073669,180.937302 629.442017,180.738953 632.131165,182.785461 
	C632.005005,181.285080 631.910278,180.158630 631.869080,178.343674 
M475.487640,245.855072 
	C477.950775,245.647949 478.994720,244.250519 478.663086,241.873184 
	C478.460052,240.417862 477.498718,239.553116 476.030914,239.357727 
	C474.420959,239.143433 472.987366,239.549652 472.424133,241.199585 
	C471.670013,243.408798 472.356934,245.062759 475.487640,245.855072 
M664.242981,132.468597 
	C662.451721,130.862915 660.715881,130.973343 659.175293,132.771118 
	C658.366760,133.714584 658.322144,134.868835 658.966187,135.960602 
	C659.827576,137.420715 661.183655,137.901871 662.735107,137.429031 
	C664.967896,136.748535 665.088440,135.023254 664.242981,132.468597 
M571.567261,202.772217 
	C572.310730,205.949432 574.270752,204.952881 575.887146,203.816437 
	C577.039124,203.006516 577.289551,201.267151 576.205994,200.391037 
	C574.025757,198.628281 572.760376,200.274628 571.567261,202.772217 
z"/>
<path fill="#feebc1" opacity="1.000000" stroke="none" 
	d="
M538.155212,133.369934 
	C538.470520,135.883224 539.813782,137.810822 539.393982,140.155594 
	C542.589722,135.433029 542.747498,129.892166 544.232605,124.757629 
	C544.661438,123.275093 544.493103,121.101967 546.712524,120.891617 
	C548.451904,120.726761 549.229126,122.382782 550.074524,123.547821 
	C554.373779,129.472473 558.639771,135.422745 562.817444,141.433533 
	C565.123596,144.751678 563.419739,148.620499 559.418335,149.202316 
	C554.988098,149.846420 550.523499,150.251266 546.089294,150.870621 
	C541.699341,151.483780 540.794006,147.761963 538.452087,144.548431 
	C533.298523,152.941193 524.884338,153.661102 516.471863,154.446716 
	C510.574860,154.997391 507.714722,151.617828 509.218018,145.844788 
	C511.354431,137.640594 513.485596,129.434250 515.504639,121.200783 
	C516.080872,118.850983 516.732056,116.822334 519.143799,115.622459 
	C522.018616,114.192131 522.585022,111.487160 521.517395,108.782784 
	C520.424194,106.013725 520.994629,103.612923 521.934570,101.059692 
	C524.579529,93.874496 527.203430,86.680748 529.743469,79.457985 
	C531.127747,75.521912 532.252930,71.662048 536.693665,69.700157 
	C538.762695,68.786049 540.081726,66.382126 539.106079,63.760826 
	C538.231812,61.411869 536.450317,59.695934 533.902161,59.741413 
	C531.391296,59.786217 529.366577,61.463993 528.721863,63.811096 
	C528.077026,66.158722 527.220886,67.940269 525.243164,69.542206 
	C521.802490,72.329102 519.084045,71.820709 515.514648,69.512283 
	C511.906921,67.179016 511.669464,64.499405 512.586365,60.995285 
	C513.049622,59.224449 513.303284,57.396030 513.813477,55.640675 
	C516.257080,47.233559 522.855164,43.414501 531.457031,45.132103 
	C541.880798,47.213509 549.557556,52.436440 552.821106,63.020954 
	C553.103577,63.937145 553.618408,64.781708 553.958618,65.515678 
	C555.320190,65.718582 555.888855,64.929169 556.037964,64.199211 
	C558.094727,54.130711 565.837402,50.228439 574.481995,48.123417 
	C586.442627,45.210934 598.294189,46.323635 609.606995,51.489243 
	C612.985596,53.031967 615.710815,55.325909 617.400146,58.542667 
	C616.733704,59.823666 615.819397,59.460438 615.058594,59.435608 
	C603.518860,59.058979 598.463257,62.604008 594.663086,73.550568 
	C590.824829,84.606705 584.458374,94.223244 577.084656,103.162575 
	C573.992188,106.911690 571.926025,110.108177 573.375732,115.606522 
	C575.522949,123.750549 573.663879,132.155289 572.195496,140.350739 
	C571.672791,143.268005 566.851379,143.691513 564.629333,140.841934 
	C561.150818,136.381104 557.991882,131.668335 554.760132,127.018761 
	C552.284180,123.456635 548.868164,120.671280 550.066956,115.105637 
	C550.857239,111.436462 546.113464,111.569168 542.366211,110.407433 
	C546.317688,96.089478 558.062866,87.906212 567.098145,77.992340 
	C566.563904,76.725739 565.750061,76.727959 564.886597,76.770844 
	C564.096313,76.810089 563.302551,76.779160 562.497986,76.779160 
	C562.981262,68.347534 571.526794,61.421772 579.594299,62.742256 
	C581.835571,63.109108 583.531067,62.351238 584.597412,60.343838 
	C585.495605,58.652962 585.217529,57.078335 583.779541,55.833996 
	C581.941345,54.243229 579.528198,53.620121 577.917419,55.454712 
	C575.449341,58.265694 572.091797,59.125256 569.039124,60.702774 
	C562.412842,64.127029 557.503906,69.061050 555.177551,76.341690 
	C553.162537,82.647850 549.380737,87.965652 545.177368,92.939095 
	C537.454102,102.077255 534.575806,112.350182 537.159729,124.105492 
	C537.801331,127.024185 536.932068,130.117615 538.155212,133.369934 
z"/>
<path fill="#feebc1" opacity="1.000000" stroke="none" 
	d="
M594.523804,321.436523 
	C593.382141,319.970032 592.445251,318.798157 591.590942,317.568848 
	C587.090454,311.092743 587.685852,309.510864 594.948914,307.271545 
	C597.791443,306.395111 600.580322,305.151550 603.170715,303.682129 
	C619.263489,294.553528 635.940369,295.545197 652.846008,300.690796 
	C658.169617,302.311127 663.391235,304.266693 668.738586,305.849548 
	C658.627808,298.048340 646.917969,294.361298 634.502625,292.372467 
	C621.756531,290.330688 609.753174,292.546692 598.238831,298.167450 
	C594.769958,299.860748 591.089050,300.833008 587.134216,300.391449 
	C581.296387,299.739624 576.212769,294.360504 576.355835,288.527222 
	C576.447571,284.786987 577.595642,282.009735 582.278015,281.437683 
	C597.726135,279.550446 613.120300,279.986511 628.478699,281.972046 
	C648.281372,284.532135 667.512634,289.761719 686.791382,294.785797 
	C691.520081,296.018127 692.732849,297.794342 691.688843,302.783051 
	C687.368469,323.427917 666.840149,338.943146 645.270020,340.275726 
	C625.854370,341.475159 609.058838,334.810577 594.523804,321.436523 
z"/>
<path fill="#feebc1" opacity="1.000000" stroke="none" 
	d="
M376.622559,159.859894 
	C376.371307,158.583328 376.039673,157.469482 375.563568,156.421234 
	C370.133057,144.464691 372.420044,136.342636 383.415527,129.000809 
	C387.590088,126.213402 392.041565,124.062538 397.065063,123.107887 
	C400.225311,122.507324 401.418823,123.639923 401.369293,126.668060 
	C401.328461,129.164368 401.426788,131.655685 402.540497,134.534119 
	C405.317444,129.957748 406.110291,125.037300 407.664886,120.436592 
	C412.145538,107.176674 418.382874,95.305939 431.579590,88.614738 
	C434.667755,87.048912 437.553986,85.554955 440.201141,89.509087 
	C441.303589,91.155861 443.787811,91.677910 445.120300,90.298080 
	C450.890564,84.322845 457.997833,86.844711 465.107147,86.318932 
	C464.457214,89.147369 462.482422,90.182137 460.885742,91.437813 
	C450.812164,99.360054 440.703247,107.237457 430.591553,115.111130 
	C428.539948,116.708679 426.795654,118.353607 423.539490,117.794853 
	C420.660095,117.300751 418.393066,119.610718 418.569305,122.733963 
	C418.734497,125.661079 417.236572,127.352676 415.471466,129.174118 
	C411.072845,133.713165 406.686615,138.266525 402.403687,142.913971 
	C400.976410,144.462769 399.580719,145.370377 397.327118,145.494293 
	C392.588501,145.754868 390.643738,148.289398 391.831726,152.737488 
	C392.363617,154.729126 392.241913,156.288513 391.247681,157.920212 
	C388.302856,162.753159 385.281616,167.541107 382.426300,172.426147 
	C381.462097,174.075714 379.857544,174.348938 378.397797,175.083542 
	C374.495392,177.047424 373.437744,180.564697 376.644348,182.957413 
	C380.589264,185.901001 382.136963,189.960602 383.754944,194.076645 
	C387.691986,204.092178 395.157501,209.281815 405.588409,210.604126 
	C407.076813,210.792816 408.631409,210.683990 409.809631,211.805405 
	C418.334229,219.919067 429.136993,222.428970 440.229950,224.303116 
	C441.639160,224.541183 443.278992,224.353897 444.406799,225.599304 
	C442.744720,235.116669 442.770325,234.932907 433.084595,233.583588 
	C421.909058,232.026703 410.631287,231.111984 399.866699,227.386734 
	C387.574768,223.132919 379.177704,215.067398 375.355042,202.462921 
	C374.433655,199.424881 372.906250,196.707809 370.992523,194.112991 
	C363.813599,184.379303 364.012054,170.810852 370.874542,160.895752 
	C372.799011,158.115189 374.565277,159.918106 376.622559,159.859894 
z"/>
<path fill="#feebc1" opacity="1.000000" stroke="none" 
	d="
M425.205231,214.125000 
	C412.431610,209.701111 408.309723,200.012451 408.399323,186.406418 
	C404.356018,192.503647 403.703674,197.601257 405.402313,203.409256 
	C400.676636,204.029114 397.001251,202.497604 393.832336,199.726929 
	C389.615723,196.040192 385.531128,191.299759 384.977112,186.195221 
	C384.419495,181.057236 381.618744,175.079987 386.085205,169.877167 
	C387.894012,167.770157 389.259857,165.149002 390.312897,162.553146 
	C393.036377,155.839462 400.238007,155.380432 404.482361,151.250137 
	C400.448883,148.675171 400.299927,147.156708 404.038849,143.254974 
	C408.297363,138.811081 412.468964,134.284012 416.712006,129.825119 
	C417.822937,128.657654 418.596100,127.010399 420.443970,126.843315 
	C421.687836,127.224670 422.040588,128.182877 421.925232,129.208694 
	C421.256378,135.156662 420.646362,141.116013 419.763428,147.033783 
	C418.909180,152.759369 414.692322,152.789841 409.983490,152.345413 
	C412.988739,153.634964 415.777893,154.878876 417.808746,157.439636 
	C418.767487,158.648544 420.717407,158.823761 421.844421,157.491333 
	C424.156433,154.757950 426.918823,155.560394 429.656342,156.150024 
	C435.566040,157.422928 441.715973,157.745575 448.833496,160.345428 
	C440.569366,166.142792 431.939667,168.339920 424.981628,173.610580 
	C432.514923,170.435944 440.048187,167.261307 447.907227,163.949402 
	C448.487030,167.067383 446.528076,168.471710 445.307220,170.025696 
	C439.963013,176.828278 434.457672,183.504074 429.046814,190.254730 
	C427.831482,191.770996 426.499451,192.486984 424.417389,192.589310 
	C420.202576,192.796448 417.568024,195.710098 418.581787,198.857803 
	C419.766510,202.536377 422.495758,203.631454 426.086700,202.220612 
	C427.202118,201.782394 428.243134,201.283173 429.421661,201.803833 
	C437.154083,205.220001 444.878448,208.653809 452.360931,213.076645 
	C451.015656,216.800095 449.183044,219.112350 445.030426,218.348495 
	C438.509888,217.149139 431.885742,216.451477 425.205231,214.125000 
M398.910736,176.570374 
	C396.676422,176.228592 395.425812,177.194412 395.273895,179.435837 
	C395.178772,180.838638 395.617493,182.070175 397.079865,182.590317 
	C398.476868,183.087189 399.754974,182.720459 400.545868,181.489868 
	C401.711639,179.675964 401.320251,178.063950 398.910736,176.570374 
z"/>
<path fill="#feebc1" opacity="1.000000" stroke="none" 
	d="
M461.966858,121.825165 
	C463.812164,121.091301 465.072601,119.737854 466.924561,120.145279 
	C468.282715,121.618423 467.182251,122.988953 466.707520,124.297981 
	C463.642059,132.750549 460.522675,141.183594 457.404846,149.617096 
	C456.451080,152.196930 447.428467,157.546509 444.533661,157.093201 
	C438.943756,156.217819 433.361969,155.269516 427.808624,154.187927 
	C422.723785,153.197540 420.824371,150.462540 421.442810,145.267075 
	C422.070526,139.993576 421.830933,134.342941 423.756744,129.579361 
	C425.483246,125.308807 426.889313,120.287933 430.753326,117.165092 
	C441.364746,108.589020 452.122406,100.192917 462.879669,91.799232 
	C464.385529,90.624222 465.972809,88.757179 468.151367,89.690514 
	C470.422333,90.663422 469.971893,93.063919 469.927063,94.991432 
	C469.822662,99.482880 469.511597,103.969124 469.327209,108.459236 
	C469.191711,111.759956 467.171326,113.603745 464.380280,114.681488 
	C453.559937,118.859665 446.631531,126.780823 442.688354,137.421387 
	C441.649445,140.224930 440.239899,141.855347 437.265381,142.517548 
	C434.769287,143.073257 432.310486,144.084793 429.787567,146.394180 
	C434.903839,146.859451 438.961273,145.119141 443.149902,144.556854 
	C445.574341,144.231384 445.783722,141.296539 446.558136,139.386154 
	C449.617523,131.839294 454.595306,126.042786 461.966858,121.825165 
z"/>
<path fill="#feebc1" opacity="1.000000" stroke="none" 
	d="
M398.823669,101.122498 
	C401.765991,101.108116 401.993683,98.585754 402.830963,96.815735 
	C408.456940,84.922974 416.958496,76.345917 429.937134,72.777809 
	C431.750183,72.279366 433.196442,71.198631 434.612762,69.995636 
	C449.379242,57.453522 466.635162,52.073650 485.808899,52.556637 
	C489.380310,52.646599 491.733032,50.602619 494.363373,48.976425 
	C500.119843,45.417557 506.222931,43.418827 514.273315,43.576756 
	C508.781433,50.961391 509.797058,58.382557 511.103546,65.983170 
	C506.533325,66.587357 502.882111,64.573212 499.008911,64.091972 
	C476.773590,61.329327 456.255310,65.105270 438.019440,78.750931 
	C436.978821,79.529610 435.728943,80.126823 434.485321,80.521111 
	C418.819763,85.487770 409.955963,97.105591 404.386780,111.702072 
	C402.966431,115.424652 401.472778,117.414207 397.091675,117.506622 
	C389.735779,117.661819 383.637177,121.830666 376.898071,125.560669 
	C376.867493,120.620735 379.963776,117.616440 381.900848,114.239220 
	C384.979187,108.872238 389.229431,104.350075 393.645264,100.035439 
	C395.590454,98.134827 397.598724,97.122429 398.823669,101.122498 
z"/>
<path fill="#feebc1" opacity="1.000000" stroke="none" 
	d="
M492.021332,222.976044 
	C489.748016,225.099991 491.828735,227.308701 491.980469,229.442932 
	C492.234375,233.014587 490.935577,234.243988 487.640320,232.715271 
	C484.026215,231.038666 480.503937,229.163788 476.947540,227.363678 
	C476.506805,227.140610 475.737854,226.850388 475.734802,226.584259 
	C475.677673,221.593719 471.190979,218.880310 469.677948,214.671722 
	C468.361176,211.008957 469.127686,208.329681 472.530304,205.726318 
	C484.793457,196.343582 484.681488,196.200912 488.419678,211.112534 
	C488.576416,211.737778 488.854767,212.332550 489.432007,212.907715 
	C490.018524,210.417145 489.513062,207.982971 488.922760,205.562515 
	C488.337708,203.163620 487.687286,200.778656 488.091492,197.186569 
	C501.031006,202.386444 513.466248,207.429153 525.627197,213.217789 
	C524.672607,216.394302 522.317749,215.835800 520.539246,216.194534 
	C512.560181,217.803925 504.552032,219.269318 496.576691,220.895981 
	C495.149506,221.187073 493.827454,221.993622 492.228027,222.781219 
	C491.999176,223.000244 492.021332,222.976044 492.021332,222.976044 
M479.296661,226.230286 
	C482.724274,228.109634 484.061035,224.598297 486.467834,223.418823 
	C483.878448,223.306198 482.582916,219.194260 479.492706,221.361664 
	C477.933777,222.455078 477.893463,224.084824 479.296661,226.230286 
z"/>
<path fill="#feebc1" opacity="1.000000" stroke="none" 
	d="
M448.225037,169.333282 
	C452.780579,165.296600 454.459900,165.588699 455.998535,170.861816 
	C458.694061,180.100037 461.038147,189.440628 463.717804,198.683731 
	C464.697205,202.061996 462.415161,203.530914 460.564850,205.355133 
	C453.627686,212.194519 455.731598,212.047623 446.935272,207.613342 
	C442.186249,205.219330 437.246552,203.205780 432.472168,200.859222 
	C427.782928,198.554504 427.124817,196.100037 430.359406,191.872284 
	C436.113617,184.351303 442.102081,177.009567 448.225037,169.333282 
z"/>
<path fill="#feebc1" opacity="1.000000" stroke="none" 
	d="
M511.976196,157.101471 
	C516.638062,155.332703 521.169373,154.742142 525.856628,154.740112 
	C532.958923,154.737015 536.190979,157.871307 535.761353,164.780090 
	C535.658569,166.434036 535.593384,168.090286 535.499878,169.744858 
	C534.822021,181.736038 531.045532,185.386322 519.240967,185.395340 
	C516.081970,185.397751 512.922241,185.218033 509.763824,185.242966 
	C505.648773,185.275467 504.415985,182.996429 505.223297,179.422012 
	C506.253998,174.858459 506.546570,170.273514 506.117279,165.653275 
	C505.709137,161.260925 510.571686,160.590561 511.976196,157.101471 
z"/>
<path fill="#feebc1" opacity="1.000000" stroke="none" 
	d="
M470.355652,121.399963 
	C473.130951,120.741531 474.159454,122.723106 475.427856,124.158340 
	C483.128632,132.872101 490.732025,141.672272 498.473572,150.349380 
	C500.959778,153.136078 500.404480,155.321335 496.961243,155.460037 
	C485.095642,155.938095 473.326599,158.166489 459.735565,157.614777 
	C465.654510,151.965118 469.641876,146.223282 476.501892,143.607193 
	C479.776337,142.358490 480.904572,139.545425 478.824615,137.619217 
	C476.713379,135.664017 474.029663,136.259109 473.742920,138.713974 
	C473.095428,144.257797 468.821533,146.305634 465.225525,149.025131 
	C463.186798,150.566986 462.033630,153.370972 457.846008,153.828766 
	C462.065338,142.705017 466.061768,132.168930 470.355652,121.399963 
z"/>
<path fill="#feebc1" opacity="1.000000" stroke="none" 
	d="
M468.101868,159.824829 
	C475.773438,158.857956 483.032318,157.877167 490.360657,158.346985 
	C491.962646,158.449677 493.256348,157.967911 494.665588,157.481522 
	C496.475067,156.857010 498.354126,156.791641 499.738892,158.368210 
	C501.023438,159.830704 501.404053,161.560043 500.553131,163.464233 
	C497.234283,170.891434 494.069763,178.390930 490.589966,185.741455 
	C488.867828,189.379303 485.777954,189.287735 483.223267,186.816299 
	C476.057220,179.883698 469.066437,172.766190 462.131348,165.600784 
	C459.856659,163.250488 460.613373,161.438782 463.802917,160.721924 
	C465.092010,160.432220 466.392700,160.194046 468.101868,159.824829 
z"/>
<path fill="#feebc1" opacity="1.000000" stroke="none" 
	d="
M483.042450,120.795433 
	C491.022491,123.569801 497.457611,127.692108 501.562073,136.513718 
	C503.343018,126.217857 499.410583,116.671524 503.294525,107.821815 
	C511.513000,108.474022 515.548218,114.007690 513.548157,121.281525 
	C511.389832,129.131088 509.369476,137.019287 507.361115,144.908997 
	C506.766357,147.245346 506.169861,149.480667 503.428436,150.116302 
	C500.963959,150.687714 499.854065,148.751251 498.561646,147.306732 
	C490.708221,138.528809 482.891235,129.718307 474.884308,120.718880 
	C477.864502,118.359154 480.265839,120.058426 483.042450,120.795433 
z"/>
<path fill="#feebc1" opacity="1.000000" stroke="none" 
	d="
M509.723328,72.813721 
	C516.167236,75.342560 516.485901,76.496468 512.406067,81.093353 
	C507.547729,86.567467 502.976105,92.267258 499.876862,98.947075 
	C498.495300,101.924698 496.822571,102.995468 493.734253,101.369812 
	C490.868164,99.861084 487.352417,99.393410 485.887756,95.815521 
	C485.435028,94.709526 484.161469,94.234192 482.953522,94.224586 
	C479.441650,94.196671 477.768402,91.504410 475.913116,89.263069 
	C473.915619,86.850006 474.540161,83.966766 477.197876,83.065147 
	C487.839996,79.454826 498.203857,74.931488 509.723328,72.813721 
z"/>
<path fill="#feebc1" opacity="1.000000" stroke="none" 
	d="
M709.956116,225.306702 
	C708.418274,224.960724 707.250366,224.764587 706.180603,224.327911 
	C702.900879,222.989151 702.993225,220.664505 705.686279,219.303314 
	C710.987915,216.623611 715.165710,211.429947 722.241638,212.412125 
	C725.395020,212.849838 727.185974,208.452438 724.773621,205.743378 
	C722.008789,202.638428 722.511353,199.655334 723.694763,196.517700 
	C725.391418,192.019333 727.398560,187.637253 729.312500,183.222595 
	C729.556580,182.659653 730.037170,182.199249 730.942017,180.960602 
	C736.106262,194.915588 737.466736,208.691528 738.047424,224.177551 
	C733.692383,220.086685 730.593506,221.148804 726.877869,222.838501 
	C721.769409,225.161575 716.177368,226.539993 709.956116,225.306702 
z"/>
<path fill="#feebc1" opacity="1.000000" stroke="none" 
	d="
M516.836182,207.215149 
	C508.732910,203.678802 500.747375,200.773117 493.431488,196.773453 
	C493.990997,194.793655 495.077606,194.773834 496.030060,194.590027 
	C505.557678,192.751205 515.093018,192.935898 524.653809,194.384384 
	C528.844360,195.019257 529.874634,198.289124 530.641296,202.903809 
	C534.307678,190.438950 541.571167,184.721756 551.070190,185.989166 
	C551.160339,188.589462 549.118774,190.042130 547.787964,191.767136 
	C545.154236,195.181000 542.077148,198.270615 539.615784,201.796188 
	C533.103699,211.123734 526.866211,213.495041 516.836182,207.215149 
z"/>
<path fill="#feebc1" opacity="1.000000" stroke="none" 
	d="
M694.991028,214.993896 
	C692.906372,221.572250 694.608582,228.924866 688.492981,234.813782 
	C682.549438,240.537064 676.218445,243.039383 668.403687,243.073547 
	C667.239197,243.078629 666.074463,243.023834 664.450073,242.985016 
	C663.990295,242.973282 664.016479,242.996552 663.754761,242.821259 
	C662.455505,241.993469 660.696289,242.345139 660.454163,239.991821 
	C672.101929,234.632965 678.754944,224.419922 684.433716,213.340164 
	C685.739258,210.792953 688.109741,209.736923 690.434387,208.907745 
	C692.957031,210.482742 692.749695,213.652344 695.022034,215.031433 
	C695.022034,215.031433 695.001953,215.006271 694.991028,214.993896 
z"/>
<path fill="#feebc1" opacity="1.000000" stroke="none" 
	d="
M502.527863,71.231056 
	C494.375671,76.101509 485.088318,78.082268 476.198395,81.152954 
	C474.781189,81.642448 473.634521,80.857452 472.386566,80.435638 
	C470.577789,79.824280 468.552429,79.599068 467.216644,81.101212 
	C462.083466,86.873817 455.008301,83.693352 448.962585,85.190201 
	C447.432678,85.568977 446.104248,84.011528 445.670593,82.589272 
	C445.113312,80.761589 446.824738,80.054390 448.080200,79.287941 
	C461.466522,71.115875 476.141907,68.472122 491.584229,69.279427 
	C495.216492,69.469322 498.935455,69.335899 502.527863,71.231056 
z"/>
<path fill="#feebc1" opacity="1.000000" stroke="none" 
	d="
M564.493774,153.483170 
	C568.211548,155.243988 568.355896,157.981369 567.841431,161.197235 
	C566.902100,167.068268 563.343201,171.043381 558.831726,174.434296 
	C556.895813,175.889343 555.235046,175.875626 553.727051,173.796692 
	C550.215942,168.956055 546.622498,164.174774 543.140625,159.313385 
	C541.238403,156.657471 542.062073,154.138275 544.935303,153.426987 
	C549.875305,152.204056 554.999451,151.714539 560.054443,150.972000 
	C561.940674,150.694916 563.166199,151.833939 564.493774,153.483170 
z"/>
<path fill="#feebc1" opacity="1.000000" stroke="none" 
	d="
M471.387207,92.784698 
	C471.471283,90.608887 471.833374,88.486320 474.089355,90.602318 
	C476.260406,92.638657 479.384796,94.045769 479.495178,97.885788 
	C479.586639,101.068390 481.724640,102.246063 484.692627,101.243759 
	C489.145233,99.740097 492.187195,102.888298 495.732880,104.362343 
	C496.511444,104.686028 496.873962,105.467178 496.796051,106.416595 
	C496.432343,110.849060 496.106567,115.284637 495.728882,120.220238 
	C491.307373,118.295097 487.074921,116.641083 483.019806,114.629555 
	C479.496155,112.881668 474.311005,114.776451 472.201050,110.875992 
	C470.427002,107.596474 471.835083,103.376953 471.627228,99.579842 
	C471.509491,97.429390 471.482758,95.273949 471.387207,92.784698 
z"/>
<path fill="#feebc1" opacity="1.000000" stroke="none" 
	d="
M472.745667,179.254120 
	C476.094604,182.868713 479.856842,185.644669 482.611389,190.072617 
	C477.085693,193.151413 471.648804,195.894089 466.224976,200.715149 
	C463.223602,188.751511 459.581329,177.971634 457.520447,166.781204 
	C458.009583,166.434311 458.498688,166.087418 458.987823,165.740524 
	C463.489594,170.162598 467.991364,174.584656 472.745667,179.254120 
z"/>
<path fill="#feebc1" opacity="1.000000" stroke="none" 
	d="
M525.850464,85.776329 
	C523.676819,91.415710 521.724487,96.725761 519.614807,101.972565 
	C517.716309,106.694344 512.413818,108.764664 507.807098,106.865822 
	C504.564209,105.529152 503.602631,103.842949 505.488007,100.425568 
	C509.877563,92.469154 515.682007,85.647247 521.859497,79.114937 
	C524.078918,76.767967 525.699707,73.624374 529.865662,72.405411 
	C530.422180,77.534302 526.746643,81.106316 525.850464,85.776329 
z"/>
<path fill="#feebc1" opacity="1.000000" stroke="none" 
	d="
M526.826660,219.802216 
	C525.709045,221.621078 524.503723,223.089142 523.118774,224.832642 
	C520.817505,226.222961 519.275940,224.100174 517.173645,224.032074 
	C514.865173,231.361328 508.257507,233.187775 502.083954,235.142715 
	C497.722748,236.523743 494.123077,233.716476 493.072205,229.115417 
	C492.669006,227.350235 492.403503,225.553604 492.048279,223.373672 
	C492.021332,222.976044 491.999176,223.000244 491.987732,223.012253 
	C501.938416,221.272430 511.901062,219.523758 521.862122,217.766068 
	C523.809570,217.422409 525.905090,216.596558 526.826660,219.802216 
z"/>
<path fill="#feebc1" opacity="1.000000" stroke="none" 
	d="
M710.020386,259.673004 
	C709.820862,262.454559 708.875366,264.552338 707.266113,266.705475 
	C704.317017,254.122253 701.088867,241.608398 700.077271,227.840073 
	C704.282959,229.042023 707.436646,229.894684 710.558167,230.852127 
	C712.729187,231.518036 712.287415,233.466873 712.317566,235.043625 
	C712.473083,243.195343 710.745544,251.178680 710.020386,259.673004 
z"/>
<path fill="#feebc1" opacity="1.000000" stroke="none" 
	d="
M519.620117,231.723938 
	C524.062561,231.845200 528.202576,231.365570 532.188965,232.629837 
	C529.903381,243.676987 515.458374,247.419235 505.162811,239.223801 
	C510.017487,236.702591 514.992554,234.871124 519.620117,231.723938 
z"/>
<path fill="#feebc1" opacity="1.000000" stroke="none" 
	d="
M544.365234,164.622589 
	C547.504089,168.479645 550.554565,171.959000 552.701904,176.071777 
	C548.685608,179.039795 542.572815,179.513489 539.811523,177.183395 
	C536.167114,174.108063 535.657654,166.510788 538.708984,159.291077 
	C542.004822,159.341568 542.399597,162.621109 544.365234,164.622589 
z"/>
<path fill="#feebc1" opacity="1.000000" stroke="none" 
	d="
M498.214386,174.214264 
	C499.614807,170.463715 500.999084,167.129898 503.199860,164.075592 
	C505.002930,165.582764 504.432159,167.295807 504.329987,168.875946 
	C504.147949,171.690781 503.639679,174.506073 503.704132,177.311157 
	C503.879608,184.949326 501.990082,186.685837 493.585602,185.866760 
	C493.685181,181.531555 496.470276,178.264038 498.214386,174.214264 
z"/>
<path fill="#feebc1" opacity="1.000000" stroke="none" 
	d="
M624.520386,59.018505 
	C624.812500,56.752529 626.375488,57.525284 627.201050,57.805435 
	C635.367188,60.576782 643.235718,63.986355 650.299622,68.807053 
	C649.942627,70.444603 648.947021,70.294304 648.254883,70.098579 
	C642.335632,68.424828 636.407837,66.769234 630.549072,64.899734 
	C627.790466,64.019501 625.449890,62.393932 624.520386,59.018505 
z"/>
<path fill="#feebc1" opacity="1.000000" stroke="none" 
	d="
M562.900757,44.329590 
	C559.791138,46.981152 556.848389,49.344513 553.710754,51.864380 
	C550.566345,48.868053 547.482910,45.929836 544.376038,42.969273 
	C549.055908,40.329647 559.482666,40.955235 562.900757,44.329590 
z"/>
<path fill="#feebc1" opacity="1.000000" stroke="none" 
	d="
M612.695190,260.238525 
	C611.628296,259.296814 610.326904,258.742554 610.843994,257.315430 
	C611.167175,256.423431 612.120117,256.245209 612.941101,256.458221 
	C615.085327,257.014526 615.588379,258.672943 615.581665,260.603058 
	C614.559631,261.809753 613.790100,260.785492 612.695190,260.238525 
z"/>
</svg>